<svg xmlns="http://www.w3.org/2000/svg" width="24" height="24" viewBox="0 0 24 24">
    <path fill="#0077b5" d="M22.23 0H1.77C.8 0 0 .77 0 1.72v20.56C0 23.23.8 24 1.77 24h20.46c.98 0 1.77-.77 1.77-1.72V1.72C24 .77 23.2 0 22.23 0z"/>
    <path fill="#fff" d="M7.12 20.45V9.11H3.35v11.34h3.77zm-1.88-12.9c1.21 0 2.2-.99 2.2-2.2s-1-2.2-2.2-2.2-2.2.99-2.2 2.2 1 2.2 2.2 2.2zM20.45 20.45h-3.77v-5.9c0-1.4-.03-3.2-1.95-3.2-1.95 0-2.25 1.52-2.25 3.1v6h-3.76V9.11h3.61v1.55h.05c.5-.95 1.72-1.95 3.55-1.95 3.8 0 4.51 2.5 4.51 5.75v6z"/>
</svg>

